<?xml version="1.0" encoding="UTF-8"?>
<svg id="Layer_1" data-name="Layer 1" xmlns="http://www.w3.org/2000/svg" xmlns:xlink="http://www.w3.org/1999/xlink" viewBox="0 0 472.77 347.83">
  <defs>
    <style>
      .cls-1 {
        fill: none;
      }

      .cls-2 {
        clip-path: url(#clippath);
      }
    </style>
    <clipPath id="clippath">
      <rect class="cls-1" width="472.77" height="347.83"/>
    </clipPath>
  </defs>
  <g class="cls-2">
    <g>
      <path d="M263.28,206.07c-.43.24-1.22,1.62-2.5,2.27-4.24,2.11-9.77.46-10.2-4.76-.14-1.65-.08-5.61-.06-7.49.1-7.6,5.11-15.66,10.59-20.62,2.48-2.25,14.4-12.04,15.99-5.42,2.41,10.01.68,28.21-9.1,33.94-1.53.9-3.3,1.26-4.72,2.08Z"/>
      <path d="M345.33,205.67c-1.67-1-2.96-1.13-4.77-2.01-10.21-4.97-12.92-22.55-11.52-32.68,1.02-7.38,12.45.73,15.52,3.03,9.65,7.23,13.38,16.06,13.16,28.12-.1,5.31-5.57,7.35-9.96,5.39-.87-.39-1.65-1.38-2.44-1.85Z"/>
      <path d="M308.24,126.53c1.04-.32,2.13-.18,3.15.18,1.58.55,8.73,5.48,10.32,6.78,5.03,4.13,11.29,12.02,11.33,18.85.01,1.79-1.05,4.1-1.23,5.71-.33,3.06,1.26,4.63-1.28,7.87-4.95,6.3-8.77.38-13.55-2.04-5.41-3.95-8.87-9.77-10.35-16.31-.79-3.51-2.77-19.69,1.61-21.03Z"/>
      <path d="M243.41,103.41c2.64-.28,3.83,1.02,5.92,1.37,2.36.4,4.03-.08,6.75.8,9.19,2.96,16.55,17.28,18,26.26.98,6.11-3.99,5.22-8.45,4.43-9.11-1.61-20.46-7.44-24.71-16.03-.73-1.48-3.87-9.46-3.86-10.66.05-3.16,3.42-5.86,6.35-6.17Z"/>
      <path d="M227.76,108.5c1.45.01,2.94.83,3.95,1.82.91.9,4.55,7.42,5.19,8.89,4.14,9.53,1.25,24.49-4.96,32.62-2.57,3.37-4.29,3.75-6.95.42-6.34-7.93-13.15-22.22-8.22-32.19.88-1.78,2.68-3.01,3.33-4.22.76-1.44.52-3.02,1.87-4.67,1.23-1.51,3.89-2.69,5.81-2.67Z"/>
      <path d="M74.18,250.5c-.75-.75-1.48-2.57-1.63-3.64-.52-3.7.07-11.23,1.23-14.77,2.45-7.45,10.71-14.88,17.17-19.04,2.27-1.47,4.82-3.41,7.71-2.36.79.39,1.4,2.15,1.41,3.01.15,7.83-1.43,22.39-5.55,29.09-3.16,5.15-10.97,10.4-17.14,9.29-.88-.16-2.59-.94-3.22-1.56Z"/>
      <path d="M118.66,168.78c6.5-.93,3.13,7.94,4.69,11.72-.59,9.39-2.86,20.14-11.92,24.84-1.07.56-2.34.54-3.4,1.12-.95.52-1.57,1.63-2.8,2.23-4.3,2.09-10,.25-10.14-5.06-.21-8.52.98-15.83,6.6-22.62,3.1-3.75,12.21-11.56,16.97-12.24Z"/>
      <path d="M151.31,126.03c3.51-1.08,10.09,2.95,13,4.92,10.21,6.92,14.41,14.53,14.82,26.93.14,4.29-1.54,7.62-6.33,7.74-3.42.09-4-1.82-6.1-2.86-2.51-1.24-4.58-1.15-7.35-3.21-8.23-6.11-10.36-21.25-9.73-30.78.06-.96.71-2.43,1.69-2.73Z"/>
      <path d="M211.62,215.67c5.08,4.07,11.39,12.53,11.73,19.24.13,2.61-1.03,4.66-1.43,7-.6,3.5.92,5.53-2.54,8.53-2.45,2.12-4.8,2.26-7.54.46-12.56-8.23-17.23-20.77-15.06-35.64.31-2.13,1.5-6.5,4.18-6.35.97.05,9.34,5.71,10.65,6.76Z"/>
      <path d="M227.28,29.95c2.2-.35,3.41,2.51,4.26,4.1,4.46,8.33,11.57,21.67,7.03,30.87-.84,1.69-2.87,3.21-3.34,4.21-1.18,2.49-.67,5.38-3.95,7.12-4.02,2.14-7.27.14-9.31-3.46-6.32-11.08-7.38-17.57-2.85-29.83,1.08-2.92,5.05-12.51,8.15-13Z"/>
      <path d="M356.03,209.49c.96-.26,2.28.26,3.12.73,4.31,2.41,14.39,11.33,17.35,15.34,5.38,7.29,5.93,12.52,4.29,21.31-.67,3.61-4.96,5.99-8.54,5.07-.95-.25-6.99-4.26-8-5.07-7.73-6.23-10.22-16.02-10.61-25.6-.1-2.47-.54-10.97,2.39-11.77Z"/>
      <path d="M291.11,97.08c-1.21,1.38-5.36,3.29-7.18,4.13-7.69,3.56-16.27,6.16-24.73,3.74-1.8-.51-10.38-4.81-11.64-5.96-3.23-2.96-2.65-8.22,1.12-10.39,1.54-.88,3.16-.84,4.52-1.51,4.33-2.13,5.21-5.04,11.65-4.94,5.44.09,20.03,6.39,24.77,9.47,2.46,1.6,3.72,2.88,1.48,5.45Z"/>
      <path d="M249.91,210.02c.61-.13,1.19-.2,1.79,0,1.56.47,2.4,5.19,2.41,6.71,0,7.97-2.07,19.78-7.09,26.14-1.55,1.96-9.89,8.5-12.04,9.08-4.49,1.2-8.35-1.4-8.59-6.07-.1-2.01.93-3.12,1-4.54.09-1.84-1.15-3.88-.98-6.49.39-5.76,4.87-11.01,9.05-14.6,1.58-1.36,13.35-9.98,14.46-10.22Z"/>
      <path d="M179.31,100.06l-1.84-.82c-6.65-3.76-18.46-5.92-5.72-12.63s24.81-8.44,37.73.17c5.2,3.47,4.36,9.26-1.18,11.73-3.08,1.37-3.13,1.44-5.87,3.19-7.49,4.79-15.87,2.3-23.12-1.65Z"/>
      <path d="M133.18,133.8l1-1.23c7.01-4.88,13.64-12.56,13.28,2.19-.21,8.53-2.41,20.24-8.83,26.38-1.12,1.07-8.69,6.25-9.94,6.66-4.53,1.48-8.35-.83-8.81-5.55-.22-2.22.88-3.56.89-5.38.01-1.57-.99-3.45-.99-5.03-.01-6.94,7.17-15.38,13.39-18.04Z"/>
      <path d="M185.48,46.6c1.25-.14,14.65,5.66,16.72,6.71,6.31,3.19,11.46,7.74,12.63,15.03.18,1.1-.18,2.38.02,3.5.27,1.48,1.83,2.71,2,5.06.44,6.02-4.28,8.22-9.55,6.52-14.46-4.67-20.21-13.83-23.51-28.3-.55-2.41-1.98-8.12,1.68-8.52Z"/>
      <path d="M300.23,126.05c.56.56.58,1.84.64,2.62.28,3.3-.24,10.58-.59,14.04-.7,6.88-2.94,15.2-9.46,18.7-1.29.69-2.88.85-4.01,1.52-1.52.9-2.35,2.87-4.36,3.68-5.17,2.09-9.34-1.4-9.27-6.72.05-3.6.46-9.64,1.64-12.99,2.49-7.07,10.84-14.64,17.03-18.68,1.81-1.18,6.4-4.17,8.39-2.19Z"/>
      <path d="M206.16,101.91c5.83-1.02,9.05,2.28,8.06,8.06-.29,1.66-1.51,2.75-1.77,3.76-.39,1.54.05,3.27-.16,4.87-.72,5.28-6.25,10.44-10.69,12.95-2.99,1.69-13.34,6.43-16.41,7.22-4.58,1.18-4.82-2.26-4.31-5.83,1.22-8.67,7.05-21.8,14.7-26.54,1.69-1.05,8.83-4.19,10.59-4.49Z"/>
      <path d="M267.03,52.63c2.63-.36,6.35-.79,6.65,2.58-4.79,10.81-8.16,26.76-21.88,28.98-1.1.18-2.38-.18-3.5.02-1.48.27-2.75,1.89-5.07,2.01-4.19.22-7.78-2.85-7.16-7.19.22-1.56,2.83-7.76,3.65-9.45,4.44-9.16,17.52-15.63,27.3-16.96Z"/>
      <path d="M178.49,165.24c1.73-.25,9.99,6.65,11.71,8.21,4.84,4.38,10.63,10.92,11.52,17.65.24,1.83.29,9.69,0,11.49-.63,4.1-4.87,6.77-8.89,5.43-2.18-.73-9.89-7.21-11.41-9.21-5.59-7.4-6.64-19.4-5.85-28.39.16-1.81.74-4.86,2.9-5.18Z"/>
    </g>
  </g>
</svg>