<?xml version="1.0" encoding="UTF-8"?>
<svg id="Layer_1" data-name="Layer 1" xmlns="http://www.w3.org/2000/svg" viewBox="0 0 126.19 124.65">
  <path d="M77.32,73.49c2.64-.28,3.83,1.02,5.92,1.37,2.36.4,4.03-.08,6.75.8,9.19,2.96,16.55,17.28,18,26.26.98,6.11-3.99,5.22-8.45,4.43-9.11-1.61-20.46-7.44-24.71-16.03-.73-1.48-3.87-9.46-3.86-10.66.05-3.16,3.42-5.86,6.35-6.17Z"/>
  <path d="M61.68,78.58c1.45.01,2.94.83,3.95,1.82.91.9,4.55,7.42,5.19,8.89,4.14,9.53,1.25,24.49-4.96,32.62-2.57,3.37-4.29,3.75-6.95.42-6.34-7.93-13.15-22.22-8.22-32.19.88-1.78,2.68-3.01,3.33-4.22.76-1.44.52-3.02,1.87-4.67,1.23-1.51,3.89-2.69,5.81-2.67Z"/>
  <path d="M61.19.03c2.2-.35,3.41,2.51,4.26,4.1,4.46,8.33,11.57,21.67,7.03,30.87-.84,1.69-2.87,3.21-3.34,4.21-1.18,2.49-.67,5.38-3.95,7.12-4.02,2.14-7.27.14-9.31-3.46-6.32-11.08-7.38-17.57-2.85-29.83C54.12,10.12,58.09.52,61.19.03Z"/>
  <path d="M125.03,67.17c-1.21,1.38-5.36,3.29-7.18,4.13-7.69,3.56-16.27,6.16-24.73,3.74-1.8-.51-10.38-4.81-11.64-5.96-3.23-2.96-2.65-8.22,1.12-10.39,1.54-.88,3.16-.84,4.52-1.51,4.33-2.13,5.21-5.04,11.65-4.94,5.44.09,20.03,6.39,24.77,9.47,2.46,1.6,3.72,2.88,1.48,5.45Z"/>
  <path d="M13.22,70.14l-1.84-.82c-6.65-3.76-18.46-5.92-5.72-12.63s24.81-8.44,37.73.17c5.2,3.47,4.36,9.26-1.18,11.73-3.08,1.37-3.13,1.44-5.87,3.19-7.49,4.79-15.87,2.3-23.12-1.65Z"/>
  <path d="M19.39,16.69c1.25-.14,14.65,5.66,16.72,6.71,6.31,3.19,11.46,7.74,12.63,15.03.18,1.1-.18,2.38.02,3.5.27,1.48,1.83,2.71,2,5.06.44,6.02-4.28,8.22-9.55,6.52-14.46-4.67-20.21-13.83-23.51-28.3-.55-2.41-1.98-8.12,1.68-8.52Z"/>
  <path d="M40.07,71.99c5.83-1.02,9.05,2.28,8.06,8.06-.29,1.66-1.51,2.75-1.77,3.76-.39,1.54.05,3.27-.16,4.87-.72,5.28-6.25,10.44-10.69,12.95-2.99,1.69-13.34,6.43-16.41,7.22-4.58,1.18-4.82-2.26-4.31-5.83,1.22-8.67,7.05-21.8,14.7-26.54,1.69-1.05,8.83-4.19,10.59-4.49Z"/>
  <path d="M100.94,22.71c2.63-.36,6.35-.79,6.65,2.58-4.79,10.81-8.16,26.76-21.88,28.98-1.1.18-2.38-.18-3.5.02-1.48.27-2.75,1.89-5.07,2.01-4.19.22-7.78-2.85-7.16-7.19.22-1.56,2.83-7.76,3.65-9.45,4.44-9.16,17.52-15.63,27.3-16.96Z"/>
</svg>