<?xml version="1.0" encoding="UTF-8"?>
<svg id="Layer_1" data-name="Layer 1" xmlns="http://www.w3.org/2000/svg" viewBox="0 0 63.37 61.94">
  <path d="M63.37,29.73v1.51c-5.51,3.5-15.44,9.54-21.98,6.14-.97-.51-1.44-1.42-2.2-1.83-2.23-1.19-5.76-.96-5.48-5.04.23-3.32,8.8-6.6,11.79-6.83,6.4-.5,12.8,2.44,17.87,6.05Z"/>
  <path d="M34.05,33.89c.29.24,3.4,5.87,3.69,6.62,2.16,5.77.54,12.56-2.35,17.81-1.24,2.26-2.82,5.24-5.44,2.55-3.2-3.28-6.74-12.22-6.32-16.82.34-3.67,5.56-14.21,10.42-10.16Z"/>
  <path d="M13.45,23.32c5.22-.71,8.61.71,12.87,3.47,2.92,1.89,3.43,5.26.49,7.38-5.08,3.67-10.16,4.79-16.28,3.37-2.53-.59-11.38-3.66-10.47-6.95.66-2.4,10.72-6.91,13.39-7.27Z"/>
  <path d="M33.55.7c1.23,1.03,3.85,7.23,4.31,9.01,1.14,4.36,1.23,7.73-.41,11.96-1.35,3.5-5.06,10.33-9.31,5.8-1.18-1.26-4.26-7.37-4.46-9.12-.57-5.02,2.74-13.66,6.26-17.27,1.12-1.16,2.22-1.55,3.6-.38Z"/>
</svg>